<?xml version="1.0" encoding="utf-8"?>
<!-- Generator: Adobe Illustrator 20.1.0, SVG Export Plug-In . SVG Version: 6.00 Build 0)  -->
<svg version="1.1" id="Typo_x5F_Dachmarke" xmlns="http://www.w3.org/2000/svg" xmlns:xlink="http://www.w3.org/1999/xlink" x="0px"
	 y="0px" viewBox="0 0 141.7 41" style="enable-background:new 0 0 141.7 41;" xml:space="preserve">
<style type="text/css">
	.st0{fill:#004899;}
</style>
<g>
	<path class="st0" d="M49.6,17.6c0-2.9-2-3.4-4.4-3.8h-0.1l0,0H45c-1.6-0.2-2.1-0.4-2.1-1.4s0.6-1.6,2-1.8c1.2-0.1,3,0.2,3,0.2
		l0.7,0.1V8.6h-0.3C46.6,8.3,45,8.3,45,8.3c-4.2,0.1-4.7,2.6-4.7,4c0,2.4,1.2,3.4,4.6,3.8c1.7,0.2,2,0.5,2,1.5l0,0
		c0,1-0.8,1.8-2.3,2c-1.2,0.1-3-0.3-3-0.3l-1.3-0.4v2.5l1.1,0.2c1.7,0.3,3.4,0.2,3.4,0.2C49,21.7,49.6,19.1,49.6,17.6L49.6,17.6z"/>
	<g>
		<polygon class="st0" points="111.1,8.4 106.5,22 109,22 112.8,10.7 114.9,16.8 112.6,16.8 111.9,18.8 115.6,18.8 116.6,22 
			119.1,22 114.6,8.4 		"/>
		<polygon class="st0" points="44,27.3 39.4,40.8 42,40.8 45.8,29.6 47.9,35.7 45.5,35.7 44.9,37.6 48.5,37.6 49.6,40.8 52.1,40.8 
			47.5,27.3 		"/>
		<path class="st0" d="M104.1,21.4L104.1,21.4l0.1-6.9h-4.6v2.1h2.3v3.3c-0.4,0.1-1,0.2-1.7,0.2c-2.4,0-3.4-1.4-3.4-4.7
			s1.1-4.7,3.4-4.7c1,0,1.9,0.2,3,0.6l0.7-2h-0.1C103.1,9,102,8.6,100,8.6c-3.7,0-5.5,2.3-5.5,6.9s1.8,6.9,5.5,6.9
			C101.7,22.2,103.4,21.8,104.1,21.4z"/>
		<rect x="54.4" y="27.4" class="st0" width="2.3" height="13.4"/>
		<path class="st0" d="M76.3,27.4H72v13.4h2.3v-4.9h2.1c4.2,0,4.7-3,4.7-4.2C81,30.4,80.5,27.4,76.3,27.4z M76.3,33.8h-2v-4.3h2
			c1.8,0,2.1,1.2,2.1,2.1C78.4,32.7,78,33.8,76.3,33.8z"/>
		<path class="st0" d="M88.2,27.2c-4.6,0-5.2,3.7-5.2,6.9s0.6,6.9,5.2,6.9s5.2-3.7,5.2-6.9C93.4,30.9,92.8,27.2,88.2,27.2z
			 M88.2,38.9c-2.1,0-2.9-1.3-2.9-4.8s0.8-4.8,2.9-4.8s2.9,1.3,2.9,4.8C91.1,37.6,90.3,38.9,88.2,38.9z"/>
		<polygon class="st0" points="74.4,10.7 77.3,10.7 77.3,22 79.6,22 79.6,10.7 82.5,10.7 82.5,8.6 74.4,8.6 		"/>
		<polygon class="st0" points="60.1,8.6 51,8.6 51,10.7 54.4,10.7 54.4,22 56.7,22 56.7,10.7 60.1,10.7 		"/>
		<polygon class="st0" points="87.4,22 89.7,22 89.7,10.7 92.6,10.7 92.6,8.6 84.5,8.6 84.5,10.7 87.4,10.7 		"/>
		<path class="st0" d="M72.1,8.6h-2.3v8.9c0,1.7-0.9,2.5-2.6,2.5c-1.8,0-2.6-0.8-2.6-2.5V8.6h-2.3v9.1c0,4.2,3.8,4.5,4.9,4.5
			s4.9-0.3,4.9-4.5V8.6z"/>
		<path class="st0" d="M68.8,31.7c0-1.3-0.5-4.3-4.7-4.3h-4.4v13.4H62v-4.9h2.1c0.2,0,0.4,0,0.5,0l2.2,4.9h2.7l-2.6-5.5
			C68.6,34.4,68.8,32.6,68.8,31.7z M64.1,33.8h-2v-4.3h2c1.8,0,2.1,1.2,2.1,2.1C66.2,32.7,65.8,33.8,64.1,33.8z"/>
		<path class="st0" d="M105,31.7c0-1.3-0.5-4.3-4.7-4.3H96v13.4h2.3v-4.9h2.1c0.2,0,0.4,0,0.5,0l2.2,4.9h2.7l-2.6-5.5
			C104.8,34.4,105,32.6,105,31.7z M100.3,33.8h-2v-4.3h2c1.8,0,2.1,1.2,2.1,2.1C102.4,32.7,102.1,33.8,100.3,33.8z"/>
		<polygon class="st0" points="132.7,8.6 132.7,10.7 136.1,10.7 136.1,22 138.3,22 138.3,10.7 141.7,10.7 141.7,8.6 		"/>
		<path class="st0" d="M130.5,12.8c0-1.3-0.5-4.3-4.7-4.3h-4.4V22h2.3v-4.9h2.1c0.2,0,0.4,0,0.5,0l2.2,4.9h2.7l-2.6-5.5
			C130.2,15.5,130.5,13.8,130.5,12.8z M125.7,15h-2v-4.3h2c1.8,0,2.1,1.2,2.1,2.1C127.9,13.8,127.5,15,125.7,15z"/>
		<polygon class="st0" points="0,20.4 20.4,40.8 30.5,40.8 20.3,30.6 30.5,20.4 30.5,11.8 16,26.3 14.4,24.7 30.5,8.6 30.5,0 
			10.1,20.4 		"/>
		<polygon class="st0" points="107.2,29.6 110.6,29.6 110.6,40.8 112.9,40.8 112.9,29.6 116.3,29.6 116.3,27.4 107.2,27.4 		"/>
	</g>
</g>
</svg>
