{
  "accessors": [
    {
      "bufferView": 2,
      "componentType": 5126,
      "count": 53630,
      "max": [
        0.98944002389907837,
        0.98944002389907837,
        5.534949779510498
      ],
      "min": [
        -0.9894300103187561,
        -0.9894300103187561,
        0
      ],
      "type": "VEC3"
    },
    {
      "bufferView": 2,
      "byteOffset": 643560,
      "componentType": 5126,
      "count": 53630,
      "max": [
        1,
        1,
        1
      ],
      "min": [
        -1,
        -1,
        -1
      ],
      "type": "VEC3"
    },
    {
      "bufferView": 3,
      "componentType": 5126,
      "count": 53630,
      "max": [
        0.99999737739562988,
        0.99999994039535522,
        0.99995923042297363,
        1
      ],
      "min": [
        -0.99999463558197021,
        -1,
        -0.99995708465576172,
        -1
      ],
      "type": "VEC4"
    },
    {
      "bufferView": 2,
      "byteOffset": 1287120,
      "componentType": 5126,
      "count": 53630,
      "max": [
        1,
        1,
        1
      ],
      "min": [
        0.99607843160629272,
        0.99607843160629272,
        0.99607843160629272
      ],
      "type": "VEC3"
    },
    {
      "bufferView": 0,
      "componentType": 5125,
      "count": 301440,
      "max": [
        53629
      ],
      "min": [
        0
      ],
      "type": "SCALAR"
    },
    {
      "bufferView": 2,
      "byteOffset": 1930680,
      "componentType": 5126,
      "count": 11580,
      "max": [
        0.99400001764297485,
        0.99400001764297485,
        5.4531002044677734
      ],
      "min": [
        -0.99399000406265259,
        -0.99399000406265259,
        0.21119000017642975
      ],
      "type": "VEC3"
    },
    {
      "bufferView": 2,
      "byteOffset": 2069640,
      "componentType": 5126,
      "count": 11580,
      "max": [
        1,
        1,
        0.5077933669090271
      ],
      "min": [
        -1,
        -1,
        -0.50781542062759399
      ],
      "type": "VEC3"
    },
    {
      "bufferView": 3,
      "byteOffset": 858080,
      "componentType": 5126,
      "count": 11580,
      "max": [
        1,
        1,
        0.010768381878733635,
        1
      ],
      "min": [
        -1,
        -1,
        -0.010791566222906113,
        -1
      ],
      "type": "VEC4"
    },
    {
      "bufferView": 2,
      "byteOffset": 2208600,
      "componentType": 5126,
      "count": 11580,
      "max": [
        1,
        1,
        1
      ],
      "min": [
        0.99607843160629272,
        0.99607843160629272,
        0.99607843160629272
      ],
      "type": "VEC3"
    },
    {
      "bufferView": 1,
      "componentType": 5126,
      "count": 11580,
      "max": [
        1.0006300210952759,
        0.99971997737884521
      ],
      "min": [
        0.00044999999227002263,
        0.00086999998893588781
      ],
      "type": "VEC2"
    },
    {
      "bufferView": 0,
      "byteOffset": 1205760,
      "componentType": 5125,
      "count": 61440,
      "max": [
        11579
      ],
      "min": [
        0
      ],
      "type": "SCALAR"
    }
  ],
  "asset": {
    "extras": {
      "author": "Reucus (https://sketchfab.com/reucus)",
      "license": "CC-BY-NC-SA-4.0 (http://creativecommons.org/licenses/by-nc-sa/4.0/)",
      "source": "https://sketchfab.com/models/5a8b932d568e466d9a65eabf8ffe571d",
      "title": "Red Bull"
    },
    "generator": "Sketchfab-3.20.7",
    "version": "2.0"
  },
  "bufferViews": [
    {
      "buffer": 0,
      "byteLength": 1451520,
      "byteOffset": 0,
      "name": "floatBufferViews",
      "target": 34963
    },
    {
      "buffer": 0,
      "byteLength": 92640,
      "byteOffset": 1451520,
      "byteStride": 8,
      "name": "floatBufferViews",
      "target": 34962
    },
    {
      "buffer": 0,
      "byteLength": 2347560,
      "byteOffset": 1544160,
      "byteStride": 12,
      "name": "floatBufferViews",
      "target": 34962
    },
    {
      "buffer": 0,
      "byteLength": 1043360,
      "byteOffset": 3891720,
      "byteStride": 16,
      "name": "floatBufferViews",
      "target": 34962
    }
  ],
  "buffers": [
    {
      "byteLength": 4935080,
      "uri": "scene.bin"
    }
  ],
  "images": [
    {
      "uri": "textures/Red_Bull_baseColor.png"
    },
    {
      "uri": "textures/Red_Bull_metallicRoughness.png"
    }
  ],
  "materials": [
    {
      "doubleSided": true,
      "emissiveFactor": [
        0,
        0,
        0
      ],
      "name": "Aluminium",
      "pbrMetallicRoughness": {
        "baseColorFactor": [
          1,
          1,
          1,
          1
        ],
        "metallicFactor": 1,
        "roughnessFactor": 0.099999999999999978
      }
    },
    {
      "doubleSided": true,
      "emissiveFactor": [
        0,
        0,
        0
      ],
      "name": "Red_Bull",
      "pbrMetallicRoughness": {
        "baseColorFactor": [
          1,
          1,
          1,
          1
        ],
        "baseColorTexture": {
          "index": 0,
          "texCoord": 0
        },
        "metallicFactor": 0.80049542679999997,
        "metallicRoughnessTexture": {
          "index": 1,
          "texCoord": 0
        },
        "roughnessFactor": 0.12633384150000004
      }
    }
  ],
  "meshes": [
    {
      "name": "Red Bull Can_0",
      "primitives": [
        {
          "attributes": {
            "COLOR_0": 3,
            "NORMAL": 1,
            "POSITION": 0,
            "TANGENT": 2
          },
          "indices": 4,
          "material": 0,
          "mode": 4
        }
      ]
    },
    {
      "name": "Red Bull Can_1",
      "primitives": [
        {
          "attributes": {
            "COLOR_0": 8,
            "NORMAL": 6,
            "POSITION": 5,
            "TANGENT": 7,
            "TEXCOORD_0": 9
          },
          "indices": 10,
          "material": 1,
          "mode": 4
        }
      ]
    }
  ],
  "nodes": [
    {
      "children": [
        1
      ],
      "name": "RootNode (gltf orientation matrix)",
      "rotation": [
        -0.70710678118654746,
        -0,
        -0,
        0.70710678118654757
      ]
    },
    {
      "children": [
        2
      ],
      "name": "RootNode (model correction matrix)"
    },
    {
      "children": [
        3
      ],
      "name": "Root"
    },
    {
      "children": [
        4,
        5
      ],
      "name": "Red Bull Can"
    },
    {
      "mesh": 0,
      "name": "Red Bull Can_0"
    },
    {
      "mesh": 1,
      "name": "Red Bull Can_1"
    }
  ],
  "samplers": [
    {
      "magFilter": 9729,
      "minFilter": 9987,
      "wrapS": 10497,
      "wrapT": 10497
    }
  ],
  "scene": 0,
  "scenes": [
    {
      "name": "OSG_Scene",
      "nodes": [
        0
      ]
    }
  ],
  "textures": [
    {
      "sampler": 0,
      "source": 0
    },
    {
      "sampler": 0,
      "source": 1
    }
  ]
}

