{
  "accessors": [
    {
      "bufferView": 2,
      "componentType": 5126,
      "count": 65532,
      "max": [
        0.24344000220298767,
        0.45453500747680664,
        0.24343700706958771
      ],
      "min": [
        -0.24344000220298767,
        -0.97271502017974854,
        -0.24344299733638763
      ],
      "type": "VEC3"
    },
    {
      "bufferView": 2,
      "byteOffset": 786384,
      "componentType": 5126,
      "count": 65532,
      "max": [
        0.99992424249649048,
        0.9999966025352478,
        0.99992424249649048
      ],
      "min": [
        -0.99992424249649048,
        -0.56955498456954956,
        -0.99992412328720093
      ],
      "type": "VEC3"
    },
    {
      "bufferView": 3,
      "componentType": 5126,
      "count": 65532,
      "max": [
        0.20365059375762939,
        0.70842772722244263,
        0.99411243200302124,
        1
      ],
      "min": [
        -0.999947190284729,
        -0.70810854434967041,
        -0.99994474649429321,
        1
      ],
      "type": "VEC4"
    },
    {
      "bufferView": 1,
      "componentType": 5126,
      "count": 65532,
      "max": [
        1,
        0.98505598306655884
      ],
      "min": [
        0.3564859926700592,
        0
      ],
      "type": "VEC2"
    },
    {
      "bufferView": 0,
      "componentType": 5125,
      "count": 98298,
      "max": [
        65531
      ],
      "min": [
        0
      ],
      "type": "SCALAR"
    },
    {
      "bufferView": 2,
      "byteOffset": 1572768,
      "componentType": 5126,
      "count": 65534,
      "max": [
        0.14725099503993988,
        0.9731220006942749,
        0.14721299707889557
      ],
      "min": [
        -0.15013599395751953,
        0.27333599328994751,
        -0.15017400681972504
      ],
      "type": "VEC3"
    },
    {
      "bufferView": 2,
      "byteOffset": 2359176,
      "componentType": 5126,
      "count": 65534,
      "max": [
        0.99989938735961914,
        0.99157565832138062,
        0.99989926815032959
      ],
      "min": [
        -0.99989938735961914,
        -0.78049618005752563,
        -0.99989926815032959
      ],
      "type": "VEC3"
    },
    {
      "bufferView": 3,
      "byteOffset": 1048512,
      "componentType": 5126,
      "count": 65534,
      "max": [
        0.95353096723556519,
        0.99578595161437988,
        0.99411749839782715,
        1
      ],
      "min": [
        -0.99995040893554688,
        -0.78312814235687256,
        -0.9999462366104126,
        1
      ],
      "type": "VEC4"
    },
    {
      "bufferView": 1,
      "byteOffset": 524256,
      "componentType": 5126,
      "count": 65534,
      "max": [
        0.97312498092651367,
        0.92400199174880981
      ],
      "min": [
        0,
        0
      ],
      "type": "VEC2"
    },
    {
      "bufferView": 0,
      "byteOffset": 393192,
      "componentType": 5125,
      "count": 98961,
      "max": [
        65533
      ],
      "min": [
        0
      ],
      "type": "SCALAR"
    },
    {
      "bufferView": 2,
      "byteOffset": 3145584,
      "componentType": 5126,
      "count": 65534,
      "max": [
        0.2638460099697113,
        0.99832499027252197,
        0.26412799954414368
      ],
      "min": [
        -0.2638460099697113,
        -0.99614500999450684,
        -0.26356399059295654
      ],
      "type": "VEC3"
    },
    {
      "bufferView": 2,
      "byteOffset": 3931992,
      "componentType": 5126,
      "count": 65534,
      "max": [
        0.99960136413574219,
        0.8710026741027832,
        0.99960178136825562
      ],
      "min": [
        -0.99960136413574219,
        -0.99995064735412598,
        -0.99960190057754517
      ],
      "type": "VEC3"
    },
    {
      "bufferView": 3,
      "byteOffset": 2097056,
      "componentType": 5126,
      "count": 65534,
      "max": [
        0.99994969367980957,
        0.99967753887176514,
        0.99993282556533813,
        1
      ],
      "min": [
        -0.99994820356369019,
        -0.81181001663208008,
        -0.99994546175003052,
        1
      ],
      "type": "VEC4"
    },
    {
      "bufferView": 1,
      "byteOffset": 1048528,
      "componentType": 5126,
      "count": 65534,
      "max": [
        0.76083201169967651,
        1
      ],
      "min": [
        0.0032415799796581268,
        0
      ],
      "type": "VEC2"
    },
    {
      "bufferView": 0,
      "byteOffset": 789036,
      "componentType": 5125,
      "count": 98298,
      "max": [
        65533
      ],
      "min": [
        0
      ],
      "type": "SCALAR"
    },
    {
      "bufferView": 2,
      "byteOffset": 4718400,
      "componentType": 5126,
      "count": 65532,
      "max": [
        0.26705598831176758,
        0.9127500057220459,
        0.26705598831176758
      ],
      "min": [
        -0.26705598831176758,
        -0.99614500999450684,
        -0.26705598831176758
      ],
      "type": "VEC3"
    },
    {
      "bufferView": 2,
      "byteOffset": 5504784,
      "componentType": 5126,
      "count": 65532,
      "max": [
        0.99992424249649048,
        0.59560161828994751,
        0.99992412328720093
      ],
      "min": [
        -0.99992424249649048,
        -0.81980729103088379,
        -0.99992424249649048
      ],
      "type": "VEC3"
    },
    {
      "bufferView": 3,
      "byteOffset": 3145600,
      "componentType": 5126,
      "count": 65532,
      "max": [
        0.99995023012161255,
        0.50075811147689819,
        0.99993240833282471,
        1
      ],
      "min": [
        -0.99994838237762451,
        -0.70607739686965942,
        -0.99994653463363647,
        1
      ],
      "type": "VEC4"
    },
    {
      "bufferView": 1,
      "byteOffset": 1572800,
      "componentType": 5126,
      "count": 65532,
      "max": [
        0.65388000011444092,
        0.97867900133132935
      ],
      "min": [
        0,
        0
      ],
      "type": "VEC2"
    },
    {
      "bufferView": 0,
      "byteOffset": 1182228,
      "componentType": 5125,
      "count": 98652,
      "max": [
        65531
      ],
      "min": [
        0
      ],
      "type": "SCALAR"
    },
    {
      "bufferView": 2,
      "byteOffset": 6291168,
      "componentType": 5126,
      "count": 65534,
      "max": [
        0.12583500146865845,
        1,
        0.11621800065040588
      ],
      "min": [
        -0.12583500146865845,
        0.65298402309417725,
        -0.11253699660301208
      ],
      "type": "VEC3"
    },
    {
      "bufferView": 2,
      "byteOffset": 7077576,
      "componentType": 5126,
      "count": 65534,
      "max": [
        0.99984174966812134,
        0.99999189376831055,
        0.99984174966812134
      ],
      "min": [
        -0.99984174966812134,
        -0.99922901391983032,
        -0.99984174966812134
      ],
      "type": "VEC3"
    },
    {
      "bufferView": 3,
      "byteOffset": 4194112,
      "componentType": 5126,
      "count": 65534,
      "max": [
        0.99993830919265747,
        0.99517959356307983,
        0.99992942810058594,
        1
      ],
      "min": [
        -0.9999382495880127,
        -0.99518024921417236,
        -0.99993652105331421,
        1
      ],
      "type": "VEC4"
    },
    {
      "bufferView": 1,
      "byteOffset": 2097056,
      "componentType": 5126,
      "count": 65534,
      "max": [
        0.69025701284408569,
        0.92959302663803101
      ],
      "min": [
        0.036384601145982742,
        0.68271702527999878
      ],
      "type": "VEC2"
    },
    {
      "bufferView": 0,
      "byteOffset": 1576836,
      "componentType": 5125,
      "count": 98580,
      "max": [
        65533
      ],
      "min": [
        0
      ],
      "type": "SCALAR"
    },
    {
      "bufferView": 2,
      "byteOffset": 7863984,
      "componentType": 5126,
      "count": 65532,
      "max": [
        0.21676300466060638,
        1,
        0.22030499577522278
      ],
      "min": [
        -0.21676300466060638,
        -1,
        -0.2132209986448288
      ],
      "type": "VEC3"
    },
    {
      "bufferView": 2,
      "byteOffset": 8650368,
      "componentType": 5126,
      "count": 65532,
      "max": [
        0.99955511093139648,
        0.99999314546585083,
        0.99955499172210693
      ],
      "min": [
        -0.99955487251281738,
        -1,
        -0.99955534934997559
      ],
      "type": "VEC3"
    },
    {
      "bufferView": 3,
      "byteOffset": 5242656,
      "componentType": 5126,
      "count": 65532,
      "max": [
        0.8007272481918335,
        0.8110540509223938,
        0.73893338441848755,
        1
      ],
      "min": [
        -0.78102833032608032,
        -0.99963110685348511,
        -0.7698744535446167,
        1
      ],
      "type": "VEC4"
    },
    {
      "bufferView": 1,
      "byteOffset": 2621328,
      "componentType": 5126,
      "count": 65532,
      "max": [
        0.75268501043319702,
        0.99513399600982666
      ],
      "min": [
        0.083931803703308105,
        0.80604898929595947
      ],
      "type": "VEC2"
    },
    {
      "bufferView": 0,
      "byteOffset": 1971156,
      "componentType": 5125,
      "count": 98298,
      "max": [
        65531
      ],
      "min": [
        0
      ],
      "type": "SCALAR"
    },
    {
      "bufferView": 2,
      "byteOffset": 9436752,
      "componentType": 5126,
      "count": 65534,
      "max": [
        0.1863040030002594,
        -0.92236101627349854,
        0.19016599655151367
      ],
      "min": [
        -0.20108500123023987,
        -0.99819201231002808,
        -0.1972229927778244
      ],
      "type": "VEC3"
    },
    {
      "bufferView": 2,
      "byteOffset": 10223160,
      "componentType": 5126,
      "count": 65534,
      "max": [
        0.72897100448608398,
        0.9684792160987854,
        0.73267495632171631
      ],
      "min": [
        -0.72724676132202148,
        -0.94565612077713013,
        -0.72554159164428711
      ],
      "type": "VEC3"
    },
    {
      "bufferView": 3,
      "byteOffset": 6291168,
      "componentType": 5126,
      "count": 65534,
      "max": [
        0.80029559135437012,
        0.72654271125793457,
        0.62527924776077271,
        1
      ],
      "min": [
        -0.78106826543807983,
        -0.73191922903060913,
        -0.60056966543197632,
        1
      ],
      "type": "VEC4"
    },
    {
      "bufferView": 1,
      "byteOffset": 3145584,
      "componentType": 5126,
      "count": 65534,
      "max": [
        0.66498100757598877,
        0.97896802425384521
      ],
      "min": [
        0.090448096394538879,
        0.81079000234603882
      ],
      "type": "VEC2"
    },
    {
      "bufferView": 0,
      "byteOffset": 2364348,
      "componentType": 5125,
      "count": 98298,
      "max": [
        65533
      ],
      "min": [
        0
      ],
      "type": "SCALAR"
    },
    {
      "bufferView": 2,
      "byteOffset": 11009568,
      "componentType": 5126,
      "count": 65534,
      "max": [
        0.12885400652885437,
        -0.91184902191162109,
        0.13271600008010864
      ],
      "min": [
        -0.14527800679206848,
        -0.95461899042129517,
        -0.14141599833965302
      ],
      "type": "VEC3"
    },
    {
      "bufferView": 2,
      "byteOffset": 11795976,
      "componentType": 5126,
      "count": 65534,
      "max": [
        0.39192095398902893,
        0.99985498189926147,
        0.38995018601417542
      ],
      "min": [
        -0.31819301843643188,
        -0.99858897924423218,
        -0.32481715083122253
      ],
      "type": "VEC3"
    },
    {
      "bufferView": 3,
      "byteOffset": 7339712,
      "componentType": 5126,
      "count": 65534,
      "max": [
        0.80188167095184326,
        0.39312458038330078,
        0.6334342360496521,
        1
      ],
      "min": [
        -0.78884327411651611,
        -0.31729042530059814,
        -0.60263001918792725,
        1
      ],
      "type": "VEC4"
    },
    {
      "bufferView": 1,
      "byteOffset": 3669856,
      "componentType": 5126,
      "count": 65534,
      "max": [
        0.64770400524139404,
        0.9583209753036499
      ],
      "min": [
        0.41213899850845337,
        0.8433690071105957
      ],
      "type": "VEC2"
    },
    {
      "bufferView": 0,
      "byteOffset": 2757540,
      "componentType": 5125,
      "count": 98298,
      "max": [
        65533
      ],
      "min": [
        0
      ],
      "type": "SCALAR"
    },
    {
      "bufferView": 2,
      "byteOffset": 12582384,
      "componentType": 5126,
      "count": 19646,
      "max": [
        0.025708500295877457,
        -0.91158199310302734,
        0.054918698966503143
      ],
      "min": [
        -0.061405401676893234,
        -0.93458598852157593,
        -0.057543400675058365
      ],
      "type": "VEC3"
    },
    {
      "bufferView": 2,
      "byteOffset": 12818136,
      "componentType": 5126,
      "count": 19646,
      "max": [
        0.34265011548995972,
        0.99988734722137451,
        0.34232991933822632
      ],
      "min": [
        -0.34242397546768188,
        -0.9998897910118103,
        -0.34263902902603149
      ],
      "type": "VEC3"
    },
    {
      "bufferView": 3,
      "byteOffset": 8388256,
      "componentType": 5126,
      "count": 19646,
      "max": [
        0.99999094009399414,
        0.34354710578918457,
        0.89469456672668457,
        1
      ],
      "min": [
        -0.98004442453384399,
        -0.34303683042526245,
        -0.99714136123657227,
        1
      ],
      "type": "VEC4"
    },
    {
      "bufferView": 1,
      "byteOffset": 4194128,
      "componentType": 5126,
      "count": 19646,
      "max": [
        0.61589699983596802,
        0.91504800319671631
      ],
      "min": [
        0.20753900706768036,
        0.86779302358627319
      ],
      "type": "VEC2"
    },
    {
      "bufferView": 0,
      "byteOffset": 3150732,
      "componentType": 5125,
      "count": 29469,
      "max": [
        19645
      ],
      "min": [
        0
      ],
      "type": "SCALAR"
    }
  ],
  "asset": {
    "extras": {
      "author": "Louis (https://sketchfab.com/LinkBA)",
      "license": "CC-BY-4.0 (http://creativecommons.org/licenses/by/4.0/)",
      "source": "https://sketchfab.com/models/7f2daeea9eea45f8a9ef854661e99ee4",
      "title": "Beer Bottle"
    },
    "generator": "Sketchfab-3.19.6",
    "version": "2.0"
  },
  "bufferViews": [
    {
      "buffer": 0,
      "byteLength": 3268608,
      "byteOffset": 0,
      "name": "floatBufferViews",
      "target": 34963
    },
    {
      "buffer": 0,
      "byteLength": 4351296,
      "byteOffset": 3268608,
      "byteStride": 8,
      "name": "floatBufferViews",
      "target": 34962
    },
    {
      "buffer": 0,
      "byteLength": 13053888,
      "byteOffset": 7619904,
      "byteStride": 12,
      "name": "floatBufferViews",
      "target": 34962
    },
    {
      "buffer": 0,
      "byteLength": 8702592,
      "byteOffset": 20673792,
      "byteStride": 16,
      "name": "floatBufferViews",
      "target": 34962
    }
  ],
  "buffers": [
    {
      "byteLength": 29376384,
      "uri": "scene.bin"
    }
  ],
  "images": [
    {
      "uri": "textures/DefaultMaterial_baseColor.png"
    },
    {
      "uri": "textures/DefaultMaterial_metallicRoughness.png"
    },
    {
      "uri": "textures/DefaultMaterial_normal.jpeg"
    }
  ],
  "materials": [
    {
      "alphaMode": "BLEND",
      "doubleSided": true,
      "emissiveFactor": [
        0,
        0,
        0
      ],
      "name": "DefaultMaterial",
      "normalTexture": {
        "index": 2,
        "scale": 1,
        "texCoord": 0
      },
      "occlusionTexture": {
        "index": 1,
        "strength": 1,
        "texCoord": 0
      },
      "pbrMetallicRoughness": {
        "baseColorFactor": [
          1,
          1,
          1,
          1
        ],
        "baseColorTexture": {
          "index": 0,
          "texCoord": 0
        },
        "metallicFactor": 1,
        "metallicRoughnessTexture": {
          "index": 1,
          "texCoord": 0
        },
        "roughnessFactor": 1
      }
    }
  ],
  "meshes": [
    {
      "name": "defaultMaterial",
      "primitives": [
        {
          "attributes": {
            "NORMAL": 1,
            "POSITION": 0,
            "TANGENT": 2,
            "TEXCOORD_0": 3
          },
          "indices": 4,
          "material": 0,
          "mode": 4
        }
      ]
    },
    {
      "name": "defaultMaterial",
      "primitives": [
        {
          "attributes": {
            "NORMAL": 6,
            "POSITION": 5,
            "TANGENT": 7,
            "TEXCOORD_0": 8
          },
          "indices": 9,
          "material": 0,
          "mode": 4
        }
      ]
    },
    {
      "name": "defaultMaterial",
      "primitives": [
        {
          "attributes": {
            "NORMAL": 11,
            "POSITION": 10,
            "TANGENT": 12,
            "TEXCOORD_0": 13
          },
          "indices": 14,
          "material": 0,
          "mode": 4
        }
      ]
    },
    {
      "name": "defaultMaterial",
      "primitives": [
        {
          "attributes": {
            "NORMAL": 16,
            "POSITION": 15,
            "TANGENT": 17,
            "TEXCOORD_0": 18
          },
          "indices": 19,
          "material": 0,
          "mode": 4
        }
      ]
    },
    {
      "name": "defaultMaterial",
      "primitives": [
        {
          "attributes": {
            "NORMAL": 21,
            "POSITION": 20,
            "TANGENT": 22,
            "TEXCOORD_0": 23
          },
          "indices": 24,
          "material": 0,
          "mode": 4
        }
      ]
    },
    {
      "name": "defaultMaterial",
      "primitives": [
        {
          "attributes": {
            "NORMAL": 26,
            "POSITION": 25,
            "TANGENT": 27,
            "TEXCOORD_0": 28
          },
          "indices": 29,
          "material": 0,
          "mode": 4
        }
      ]
    },
    {
      "name": "defaultMaterial",
      "primitives": [
        {
          "attributes": {
            "NORMAL": 31,
            "POSITION": 30,
            "TANGENT": 32,
            "TEXCOORD_0": 33
          },
          "indices": 34,
          "material": 0,
          "mode": 4
        }
      ]
    },
    {
      "name": "defaultMaterial",
      "primitives": [
        {
          "attributes": {
            "NORMAL": 36,
            "POSITION": 35,
            "TANGENT": 37,
            "TEXCOORD_0": 38
          },
          "indices": 39,
          "material": 0,
          "mode": 4
        }
      ]
    },
    {
      "name": "defaultMaterial",
      "primitives": [
        {
          "attributes": {
            "NORMAL": 41,
            "POSITION": 40,
            "TANGENT": 42,
            "TEXCOORD_0": 43
          },
          "indices": 44,
          "material": 0,
          "mode": 4
        }
      ]
    }
  ],
  "nodes": [
    {
      "children": [
        1
      ],
      "name": "RootNode (gltf orientation matrix)",
      "rotation": [
        -0.70710678118654746,
        -0,
        -0,
        0.70710678118654757
      ]
    },
    {
      "children": [
        2
      ],
      "name": "RootNode (model correction matrix)"
    },
    {
      "children": [
        3
      ],
      "matrix": [
        1,
        0,
        0,
        0,
        0,
        -4.3711390063094768e-08,
        0.999999999999999,
        0,
        0,
        -0.999999999999999,
        -4.3711390063094768e-08,
        0,
        0,
        0,
        0,
        1
      ],
      "name": "Collada visual scene group"
    },
    {
      "children": [
        4,
        5,
        6,
        7,
        8,
        9,
        10,
        11,
        12
      ],
      "name": "Cylinder"
    },
    {
      "mesh": 0,
      "name": "defaultMaterial"
    },
    {
      "mesh": 1,
      "name": "defaultMaterial"
    },
    {
      "mesh": 2,
      "name": "defaultMaterial"
    },
    {
      "mesh": 3,
      "name": "defaultMaterial"
    },
    {
      "mesh": 4,
      "name": "defaultMaterial"
    },
    {
      "mesh": 5,
      "name": "defaultMaterial"
    },
    {
      "mesh": 6,
      "name": "defaultMaterial"
    },
    {
      "mesh": 7,
      "name": "defaultMaterial"
    },
    {
      "mesh": 8,
      "name": "defaultMaterial"
    }
  ],
  "samplers": [
    {
      "magFilter": 9729,
      "minFilter": 9987,
      "wrapS": 10497,
      "wrapT": 10497
    }
  ],
  "scene": 0,
  "scenes": [
    {
      "name": "OSG_Scene",
      "nodes": [
        0
      ]
    }
  ],
  "textures": [
    {
      "sampler": 0,
      "source": 0
    },
    {
      "sampler": 0,
      "source": 1
    },
    {
      "sampler": 0,
      "source": 2
    }
  ]
}

